<svg width="19" height="14" viewBox="0 0 19 14" fill="none" xmlns="http://www.w3.org/2000/svg">
<path d="M18.3307 0H12.9763C12.6086 0 12.0937 0.213284 11.834 0.472973L5.19545 7.11154C5.07027 7.23731 5 7.40752 5 7.58496C5 7.7624 5.07027 7.93262 5.19545 8.05838L10.9416 13.8046C11.0674 13.9297 11.2376 14 11.415 14C11.5925 14 11.7627 13.9297 11.8885 13.8046L18.527 7.16598C18.7876 6.9054 19 6.39138 19 6.02371V0.669301C18.9995 0.491936 18.9289 0.32197 18.8034 0.196554C18.678 0.0711378 18.5081 0.000471091 18.3307 0V0ZM14.9842 5.35441C14.8083 5.35435 14.6342 5.31965 14.4718 5.25231C14.3094 5.18496 14.1618 5.08628 14.0375 4.96189C13.9132 4.83751 13.8146 4.68986 13.7474 4.52738C13.6801 4.36489 13.6455 4.19076 13.6456 4.01491C13.6457 3.83907 13.6803 3.66495 13.7477 3.50251C13.815 3.34008 13.9137 3.19249 14.0381 3.06819C14.1625 2.94389 14.3101 2.84531 14.4726 2.77807C14.6351 2.71083 14.8092 2.67625 14.9851 2.67631C15.3402 2.67643 15.6808 2.81762 15.9318 3.06882C16.1828 3.32003 16.3238 3.66067 16.3237 4.0158C16.3236 4.37094 16.1824 4.71149 15.9312 4.96252C15.68 5.21356 15.3393 5.35452 14.9842 5.35441Z" fill="#AC9898"/>
<path d="M1.65686 7.58541L10 0H8.77307C8.36867 0 7.80232 0.213284 7.51669 0.472973L0.214973 7.11154C0.0772934 7.23731 0 7.40752 0 7.58496C0 7.7624 0.0772934 7.93262 0.214973 8.05838L6.53514 13.8046C6.67347 13.9297 6.86069 14 7.05585 14C7.25102 14 7.43824 13.9297 7.57656 13.8046L8.03789 13.3851L1.65784 7.58452L1.65686 7.58541Z" fill="#AC9898"/>
</svg>
