<svg width="20" height="20" viewBox="0 0 20 20" fill="none" xmlns="http://www.w3.org/2000/svg">
<path d="M20 18.4C20 18.92 19.8353 19.3167 19.5058 19.59C19.1764 19.8633 18.7721 20 18.2929 20H1.7071C1.22791 20 0.8236 19.86 0.49416 19.58C0.16472 19.3 0 18.9067 0 18.4C0 18 0.107817 17.5933 0.32345 17.18L8.60737 1.1C9.0027 0.366667 9.4699 0 10.009 0C10.5481 0 11.0033 0.366667 11.3747 1.1L19.6765 17.2C19.8922 17.6267 20 18.0267 20 18.4ZM11.2489 8.18V5.26H8.75112V8.18C8.75112 8.36667 8.7631 8.54333 8.78706 8.71C8.81102 8.87667 8.84397 9.06333 8.88589 9.27C8.92782 9.47667 8.96077 9.65333 8.98473 9.8L9.45193 13.04H10.5121L10.9973 9.8C11.0213 9.66667 11.0572 9.49333 11.1051 9.28C11.153 9.06667 11.189 8.87667 11.2129 8.71C11.2369 8.54333 11.2489 8.36667 11.2489 8.18ZM11.2489 15.92C11.2489 15.5333 11.1261 15.2067 10.8805 14.94C10.6349 14.6733 10.3384 14.54 9.99102 14.54C9.65559 14.54 9.36508 14.6733 9.1195 14.94C8.87391 15.2067 8.75112 15.5333 8.75112 15.92C8.75112 16.3067 8.87391 16.6367 9.1195 16.91C9.36508 17.1833 9.65559 17.32 9.99102 17.32C10.3384 17.32 10.6349 17.1833 10.8805 16.91C11.1261 16.6367 11.2489 16.3067 11.2489 15.92Z" fill="#DE1313"/>
</svg>
