<svg width="7" height="7" viewBox="0 0 7 7" fill="none" xmlns="http://www.w3.org/2000/svg">
<path d="M3.5 0C1.5645 0 0 1.5645 0 3.5C0 5.4355 1.5645 7 3.5 7C5.4355 7 7 5.4355 7 3.5C7 1.5645 5.4355 0 3.5 0ZM5.005 5.005C4.97262 5.03745 4.93416 5.06319 4.89182 5.08075C4.84948 5.09831 4.80409 5.10735 4.75825 5.10735C4.71241 5.10735 4.66702 5.09831 4.62468 5.08075C4.58234 5.06319 4.54388 5.03745 4.5115 5.005L3.5 3.9935L2.4885 5.005C2.42306 5.07044 2.3343 5.10721 2.24175 5.10721C2.1492 5.10721 2.06044 5.07044 1.995 5.005C1.92956 4.93956 1.89279 4.8508 1.89279 4.75825C1.89279 4.71242 1.90182 4.66705 1.91936 4.62471C1.93689 4.58237 1.9626 4.5439 1.995 4.5115L3.0065 3.5L1.995 2.4885C1.92956 2.42306 1.89279 2.3343 1.89279 2.24175C1.89279 2.1492 1.92956 2.06044 1.995 1.995C2.06044 1.92956 2.1492 1.89279 2.24175 1.89279C2.3343 1.89279 2.42306 1.92956 2.4885 1.995L3.5 3.0065L4.5115 1.995C4.5439 1.9626 4.58237 1.93689 4.62471 1.91936C4.66705 1.90182 4.71242 1.89279 4.75825 1.89279C4.80408 1.89279 4.84945 1.90182 4.89179 1.91936C4.93413 1.93689 4.9726 1.9626 5.005 1.995C5.0374 2.0274 5.06311 2.06587 5.08064 2.10821C5.09818 2.15055 5.10721 2.19592 5.10721 2.24175C5.10721 2.28758 5.09818 2.33295 5.08064 2.37529C5.06311 2.41763 5.0374 2.4561 5.005 2.4885L3.9935 3.5L5.005 4.5115C5.138 4.6445 5.138 4.8685 5.005 5.005Z" fill="#DE1313"/>
</svg>
