<svg width="16" height="14" viewBox="0 0 16 14" fill="none" xmlns="http://www.w3.org/2000/svg">
<path d="M15.4286 0H0.571429C0.255357 0 0 0.284375 0 0.636364V13.3636C0 13.7156 0.255357 14 0.571429 14H15.4286C15.7446 14 16 13.7156 16 13.3636V0.636364C16 0.284375 15.7446 0 15.4286 0ZM13.9857 2.16562L8.35179 7.04773C8.2125 7.16903 8.01786 7.16903 7.87857 7.04773L2.24286 2.16562C2.22161 2.14737 2.20603 2.12216 2.19829 2.09355C2.19056 2.06493 2.19106 2.03434 2.19972 2.00605C2.20838 1.97777 2.22478 1.95321 2.2466 1.93582C2.26843 1.91843 2.29459 1.90909 2.32143 1.90909H13.9071C13.934 1.90909 13.9601 1.91843 13.982 1.93582C14.0038 1.95321 14.0202 1.97777 14.0289 2.00605C14.0375 2.03434 14.038 2.06493 14.0303 2.09355C14.0225 2.12216 14.007 2.14737 13.9857 2.16562Z" fill="#F25422"/>
</svg>
