<svg width="14" height="14" viewBox="0 0 14 14" fill="none" xmlns="http://www.w3.org/2000/svg">
<path d="M13.3307 0H7.97629C7.60862 0 7.09371 0.213284 6.83402 0.472973L0.195449 7.11154C0.0702735 7.23731 0 7.40752 0 7.58496C0 7.7624 0.0702735 7.93262 0.195449 8.05838L5.94162 13.8046C6.06738 13.9297 6.2376 14 6.41504 14C6.59248 14 6.7627 13.9297 6.88846 13.8046L13.527 7.16598C13.7876 6.9054 14 6.39138 14 6.02371V0.669301C13.9993 0.492008 13.9286 0.322178 13.8032 0.196812C13.6778 0.0714467 13.508 0.000704949 13.3307 0V0ZM9.9842 5.35441C9.80835 5.35435 9.63424 5.31965 9.4718 5.25231C9.30936 5.18496 9.16178 5.08628 9.03748 4.96189C8.91318 4.83751 8.81459 4.68986 8.74735 4.52738C8.68011 4.36489 8.64554 4.19076 8.64559 4.01491C8.64565 3.83907 8.68035 3.66495 8.74769 3.50251C8.81504 3.34008 8.91372 3.19249 9.03811 3.06819C9.16249 2.94389 9.31014 2.84531 9.47262 2.77807C9.63511 2.71083 9.80924 2.67625 9.98509 2.67631C10.3402 2.67643 10.6808 2.81762 10.9318 3.06882C11.1828 3.32003 11.3238 3.66067 11.3237 4.0158C11.3236 4.37094 11.1824 4.71149 10.9312 4.96252C10.68 5.21356 10.3393 5.35452 9.9842 5.35441Z" fill="#AC9898"/>
</svg>
