<svg width="19" height="26" viewBox="0 0 19 26" fill="none" xmlns="http://www.w3.org/2000/svg">
<path d="M4.97567e-06 12.7174C4.97567e-06 7.72935 3.68973 3.63152 8.48214 2.93913V0L14.1369 4.94565L8.48214 9.89131V6.61304C7.09828 6.92917 5.86255 7.70493 4.97671 8.81364C4.09087 9.92235 3.60729 11.2985 3.60491 12.7174C3.60491 14.7663 4.60863 16.575 6.12128 17.7196L3.36458 20.1359C2.30652 19.211 1.45882 18.0705 0.878472 16.7909C0.298127 15.5113 -0.00140798 14.1223 4.97567e-06 12.7174ZM19 13.2826C19 18.2565 15.3103 22.3685 10.5178 23.0609V26L4.86309 21.0543C6.7433 19.4011 8.63764 17.762 10.5178 16.1087V19.387C11.9017 19.0708 13.1374 18.2951 14.0233 17.1864C14.9091 16.0777 15.3927 14.7015 15.3951 13.2826C15.3951 11.2337 14.3914 9.425 12.8787 8.28044L15.6354 5.86413C16.6945 6.7881 17.543 7.92848 18.1234 9.20827C18.7039 10.4881 19.0028 11.8775 19 13.2826Z" fill="white"/>
</svg>
