<svg width="40" height="40" viewBox="0 0 40 40" fill="none" xmlns="http://www.w3.org/2000/svg">
<path d="M17 34C20.7718 33.9992 24.435 32.7365 27.4061 30.413L36.7476 39.7545L39.7524 36.7497L30.4109 27.4082C32.7356 24.4368 33.9991 20.7728 34 17C34 7.62662 26.3734 0 17 0C7.62663 0 0 7.62662 0 17C0 26.3734 7.62663 34 17 34ZM17 4.25C24.0316 4.25 29.75 9.96837 29.75 17C29.75 24.0316 24.0316 29.75 17 29.75C9.96838 29.75 4.25 24.0316 4.25 17C4.25 9.96837 9.96838 4.25 17 4.25Z" fill="#F25422"/>
<path d="M22.0005 13.9953C22.8059 14.8028 23.25 15.8696 23.25 17.0001H27.5C27.5019 15.8832 27.2824 14.7771 26.8542 13.7456C26.426 12.7141 25.7975 11.7777 25.0053 10.9906C21.788 7.77756 16.2099 7.77756 12.9948 10.9906L15.9953 13.9996C17.6103 12.3888 20.394 12.3931 22.0005 13.9953Z" fill="#F25422"/>
</svg>
